<svg width="32" height="32" xmlns="http://www.w3.org/2000/svg">

 <g>
  <title>background</title>
  <rect fill="none" id="canvas_background" height="402" width="582" y="-1" x="-1"/>
 </g>
 <g>
  <title>Layer 1</title>
  <path id="svg_1" fill="#dbdae3" d="m29.334,3l-4.334,0l0,-2c0,-0.553 -0.447,-1 -1,-1s-1,0.447 -1,1l0,2l-6,0l0,-2c0,-0.553 -0.448,-1 -1,-1s-1,0.447 -1,1l0,2l-6,0l0,-2c0,-0.553 -0.448,-1 -1,-1s-1,0.447 -1,1l0,2l-4.333,0c-1.473,0 -2.667,1.193 -2.667,2.666l0,23.667c0,1.473 1.194,2.667 2.667,2.667l26.667,0c1.473,0 2.666,-1.194 2.666,-2.667l0,-23.667c0,-1.473 -1.193,-2.666 -2.666,-2.666zm0.666,26.333c0,0.368 -0.299,0.667 -0.666,0.667l-26.667,0c-0.368,0 -0.667,-0.299 -0.667,-0.667l0,-23.667c0,-0.367 0.299,-0.666 0.667,-0.666l4.333,0l0,2c0,0.553 0.448,1 1,1s1,-0.447 1,-1l0,-2l6,0l0,2c0,0.553 0.448,1 1,1s1,-0.447 1,-1l0,-2l6,0l0,2c0,0.553 0.447,1 1,1s1,-0.447 1,-1l0,-2l4.334,0c0.367,0 0.666,0.299 0.666,0.666l0,23.667z"/>
  <rect id="svg_2" y="12" x="7" width="4" height="3" fill="#dbdae3"/>
  <rect id="svg_3" y="17" x="7" width="4" height="3" fill="#dbdae3"/>
  <rect id="svg_4" y="22" x="7.061919" width="4" height="3" fill="#dbdae3"/>
  <rect id="svg_5" y="22" x="14" width="4" height="3" fill="#dbdae3"/>
  <rect id="svg_6" y="17" x="14" width="4" height="3" fill="#dbdae3"/>
  <rect id="svg_7" y="11.938081" x="14" width="4" height="3" fill="#dbdae3"/>
  <rect id="svg_8" y="21.876163" x="21" width="4" height="3" fill="#dbdae3"/>
  <rect id="svg_9" y="17" x="21" width="4" height="3" fill="#dbdae3"/>
  <rect id="svg_10" y="12" x="21" width="4" height="3" fill="#dbdae3"/>
 </g>
</svg>