<?xml version="1.0" ?><svg id="Layer_1" style="enable-background:new 0 0 128 128;" version="1.1" viewBox="0 0 128 128" xml:space="preserve" xmlns="http://www.w3.org/2000/svg" xmlns:xlink="http://www.w3.org/1999/xlink"><g><path d="M19,30.9c-0.5,0.2-1,0.5-1.2,1.1c-0.3,0.7-0.1,1.5,0.4,2l7.4,7.4l33.3,33.3v33.4H45.4c-1,0-1.9,0.8-1.9,1.9   c0,1,0.8,1.9,1.9,1.9h30.9c1,0,1.9-0.8,1.9-1.9c0-1-0.8-1.9-1.9-1.9H62.7V74.7l23.8-23.8l5.7-5.7c1.2,0.4,2.5,0.6,3.8,0.6   c7,0,12.7-5.7,12.7-12.7c0-3-1-5.7-2.8-7.9l5.7-6.6c0.7-0.8,0.6-2-0.2-2.6c-0.8-0.7-2-0.6-2.6,0.2l-5.6,6.5   c-2.1-1.4-4.5-2.3-7.2-2.3c-6.3,0-11.5,4.6-12.5,10.6H31l-8.8-9c-0.7-0.7-1.9-0.8-2.6,0c-0.7,0.7-0.8,1.9,0,2.6l6.3,6.4h-6.1   C19.4,30.8,19.2,30.8,19,30.9z M99,30.3c0.4,0.3,0.8,0.5,1.2,0.5c0.5,0,1-0.2,1.4-0.6l1.9-2.2c1,1.4,1.5,3.1,1.5,5c0,4.9-4,9-9,9   c-4.9,0-9-4-9-9c0-4.9,4-9,9-9c1.7,0,3.4,0.5,4.8,1.4l-2,2.3C98.1,28.5,98.2,29.7,99,30.3z M60.8,71.3L40.9,51.4h39.7L60.8,71.3z    M84.4,47.6H47.4L34.6,34.5h48.8c0.5,3.6,2.4,6.8,5.3,8.8L84.4,47.6z M24.1,34.5h5.3l12.8,13.1h-4.9l-9-9L24.1,34.5z"/></g></svg>