<svg width="96" height="96" xmlns="http://www.w3.org/2000/svg">

 <g>
  <title>background</title>
  <rect fill="none" id="canvas_background" height="402" width="582" y="-1" x="-1"/>
 </g>
 <g>
  <title>Layer 1</title>
  <path fill="#4c4e64" id="svg_1" d="m87.598,15.029c-9.373,-9.373 -24.568,-9.373 -33.94,0l-5.658,5.657l-5.657,-5.656c-9.373,-9.373 -24.569,-9.373 -33.941,0c-9.373,9.373 -9.373,24.568 0,33.941l5.657,5.654l33.941,33.941l33.941,-33.941l5.656,-5.654c9.374,-9.373 9.374,-24.569 0.001,-33.942zm-16.971,39.598l-22.627,22.627l-22.626,-22.627l-11.313,-11.313c-6.249,-6.248 -6.249,-16.379 0,-22.629c6.249,-6.248 16.379,-6.248 22.627,0l11.312,11.315l11.314,-11.314c6.248,-6.248 16.379,-6.248 22.627,0c6.248,6.25 6.248,16.379 0,22.629l-11.314,11.312z"/>
 </g>
</svg>