<svg width="141.732" height="141.732" xmlns="http://www.w3.org/2000/svg">

 <g>
  <title>background</title>
  <rect fill="none" id="canvas_background" height="402" width="582" y="-1" x="-1"/>
 </g>
 <g>
  <title>Layer 1</title>
  <path fill="#e3e3ea" id="svg_1" d="m32.909,24.472c0,-5.621 -4.535,-10.181 -10.129,-10.181c-5.594,0 -10.127,4.56 -10.127,10.181s4.533,10.178 10.127,10.178c5.594,0 10.129,-4.556 10.129,-10.178m-23.192,63.497c0,0 -0.098,0.134 -0.239,0.354l120.996,0c-0.011,-0.013 -0.019,-0.021 -0.027,-0.037l-41.296,-56.217c0,0 -4.896,-6.664 -9.789,0l-25.555,34.791l-9.4,-12.805c0,0 -4.895,-6.662 -9.787,0l-24.903,33.914zm124.85,3.987l-129.185,0l0,-86.547l129.186,0l0,86.547l-0.001,0zm5.384,2.704l0,-91.955c0,-1.494 -1.205,-2.705 -2.69,-2.705l-134.569,0c-1.486,0 -2.692,1.211 -2.692,2.705l0,91.955c0,1.494 1.205,2.705 2.691,2.705l134.57,0c1.485,0 2.69,-1.211 2.69,-2.705"/>
 </g>
</svg>