<svg width="512" height="512" xmlns="http://www.w3.org/2000/svg">

 <g>
  <title>background</title>
  <rect fill="none" id="canvas_background" height="402" width="582" y="-1" x="-1"/>
 </g>
 <g>
  <title>Layer 1</title>
  <path fill="#dbdae3" id="svg_2" d="m472.9,136.6l-104.7,-70.3c-4.6,-3.1 -10.4,-3.1 -15.1,0l-97.1,65.2l-97.1,-65.2c-4.6,-3.1 -10.5,-3.1 -15.1,0l-104.7,70.3c-4.4,2.9 -7.1,8.3 -7.1,14l0,281c0,5.9 2.8,11.3 7.4,14.3c4.6,2.9 10.3,2.8 14.8,-0.2l97.1,-65.2l97.1,65.2c4.7,3.1 10.4,3.1 15.1,0l97.2,-65.2l97.1,65.2c2.3,1.5 4.9,2.4 7.5,2.4c2.5,0 5,-0.7 7.2,-2.1c4.6,-2.9 7.4,-8.4 7.4,-14.3l0,-281c0.1,-5.8 -2.6,-11.2 -7,-14.1zm-337.9,216.6l-71,49.4l0,-241.7l71,-49.4l0,241.7zm32,-0.4l0,-122.4c1,0.7 2,1.3 2.9,2l9.3,-13c-3.8,-2.7 -8,-5.3 -12.2,-7.5l0,-100.9l73,49l0,108.7c-5.5,-1.9 -10.9,-4.4 -16.4,-7.9l-8.5,13.6c6.8,4.3 13.6,7.5 20.7,9.8l4.2,-12.8l0,130.3l-73,-48.9zm105,48.9l0,-113.4c0.2,0 0.4,0 0.5,0c2.9,-0.2 5.8,-0.5 8.5,-0.9l-2.5,-15.8c-2.1,0.3 -4.3,0.6 -6.6,0.7l0,-112.3l73,-49l0,119.2l-5.3,-4.8c-3,3.3 -5.8,6.6 -8.6,9.7c-1.8,2.1 -3.6,4.1 -5.3,6.1l12,10.6c1.8,-2 3.6,-4.1 5.4,-6.2c0.6,-0.7 1.2,-1.4 1.9,-2.1l0,109.2l-73,49zm176,0l-71,-48.4l0,-137.2c3.6,-1.6 7.4,-2.8 11.1,-3.6l-3.2,-15.7c-2.7,0.5 -5.3,1.3 -8,2.1l0,-87.5l71,48.5l0,241.8l0.1,0z" class="st0"/>
  <path fill="#dbdae3" id="svg_3" d="m98.9,256.990712c1.9,-5.9 3.5,-11 7.1,-16.3l-13.2,-9c-4.9,7.2 -7.1,13.9 -9.2,20.5l-0.2,0.8l15.2,4.9l0.3,-0.9z" class="st0"/>
  <path fill="#dbdae3" id="svg_4" d="m128.8,221.1c2.2,-1.2 -1.4,-1.1 1,-1.8l-4.9,-15.2c-3.3,1.1 -6.5,2.4 -9.6,4.1c-3.8,2.1 -7.7,4.9 -11.3,8.3l10.9,11.7c2.6,-2.5 11.2,-5.7 13.9,-7.1z" class="st0"/>
  <path fill="#dbdae3" id="svg_5" d="m296.3,266.1l7,14.4c6.6,-3.2 12.8,-7.4 19.1,-13l-10.6,-12c-5.2,4.6 -10.2,8.1 -15.5,10.6z" class="st0"/>
  <path fill="#dbdae3" id="svg_6" d="m197.8,237.8c-1,-1.2 -2,-2.4 -3,-3.6l-12.2,10.4c1,1.2 2,2.3 2.9,3.5c3.6,4.3 7.3,8.7 11.6,12.8l11,-11.6c-3.6,-3.5 -6.8,-7.4 -10.3,-11.5z" class="st0"/>
  <polygon fill="#dbdae3" id="svg_7" points="407.7,229.7 418,219.3 428.3,229.7 439.7,218.3 429.3,208 439.7,197.7 428.3,186.3 418,196.7    407.7,186.3 396.3,197.7 406.7,208 396.3,218.3  " class="st0"/>
 </g>
</svg>