<svg width="1792.0000000000002" height="1792.0000000000002" xmlns="http://www.w3.org/2000/svg">

 <g>
  <title>background</title>
  <rect fill="none" id="canvas_background" height="402" width="582" y="-1" x="-1"/>
 </g>
 <g>
  <title>Layer 1</title>
  <path fill="#4c4e64" id="svg_1" d="m1792,640q0,26 -19,45l-512,512q-19,19 -45,19t-45,-19t-19,-45l0,-256l-224,0q-98,0 -175.5,6t-154,21.5t-133,42.5t-105.5,69.5t-80,101t-48.5,138.5t-17.5,181q0,55 5,123q0,6 2.5,23.5t2.5,26.5q0,15 -8.5,25t-23.5,10q-16,0 -28,-17q-7,-9 -13,-22t-13.5,-30t-10.5,-24q-127,-285 -127,-451q0,-199 53,-333q162,-403 875,-403l224,0l0,-256q0,-26 19,-45t45,-19t45,19l512,512q19,19 19,45z"/>
 </g>
</svg>