<svg width="25.999999999999996" height="25.999999999999996" xmlns="http://www.w3.org/2000/svg">

 <g>
  <title>background</title>
  <rect fill="none" id="canvas_background" height="402" width="582" y="-1" x="-1"/>
 </g>
 <g>
  <title>Layer 1</title>
  <path id="svg_1" fill="#f05537" d="m16.80359,14.46051c2.08209,-1.28113 3.47766,-3.57233 3.47766,-6.18854c0,-4.00976 -3.2666,-7.27197 -7.28125,-7.27197s-7.28125,3.26221 -7.28125,7.27197c0,2.61621 1.39557,4.90741 3.47766,6.18854c-4.49579,1.00714 -7.65051,3.75836 -7.65051,7.08783c0,2.72461 7.20019,3.45166 11.4541,3.45166s11.4541,-0.72705 11.4541,-3.45166c0,-3.32947 -3.15472,-6.08069 -7.65051,-7.08783zm-9.58484,-6.18854c0,-3.18261 2.59375,-5.77197 5.78125,-5.77197s5.78125,2.58936 5.78125,5.77197s-2.59375,5.77149 -5.78125,5.77149s-5.78125,-2.58887 -5.78125,-5.77149zm5.78125,15.22803c-6.11499,0 -9.77539,-1.28998 -9.95367,-1.95673c0.00463,-3.30871 4.46826,-5.99981 9.95367,-5.99981c5.48486,0 9.94812,2.69061 9.95361,5.99884c-0.17382,0.66626 -3.83459,1.9577 -9.95361,1.9577z"/>
 </g>
</svg>