<svg width="512" height="512" xmlns="http://www.w3.org/2000/svg">

 <g>
  <title>background</title>
  <rect fill="none" id="canvas_background" height="402" width="582" y="-1" x="-1"/>
 </g>
 <g>
  <title>Layer 1</title>
  <path fill="#dbdae3" fill-rule="nonzero" stroke-width="20" id="rect2985" d="m108,39.999997l0,48l320,0l0,-48l-320,0zm-80,96l0,48l400,0l0,-48l-400,0zm176,96l0,48l224,0l0,-48l-224,0zm64,96l0,48l160,0l0,-48l-160,0zm-112,96l0,48l272,0l0,-48l-272,0z"/>
  <path fill="#dbdae3" fill-rule="nonzero" stroke-width="20" id="rect2985-1" d="m484,15.999987l0,480.00002l-24,0l0,-480.00002l24,0z"/>
 </g>
</svg>