<?xml version="1.0" ?><!DOCTYPE svg  PUBLIC '-//W3C//DTD SVG 1.1//EN'  'http://www.w3.org/Graphics/SVG/1.1/DTD/svg11.dtd'><svg enable-background="new 0 0 64 64" height="64px" id="Layer_1" version="1.1" viewBox="0 0 64 64" width="64px" xml:space="preserve" xmlns="http://www.w3.org/2000/svg" xmlns:xlink="http://www.w3.org/1999/xlink"><g><path d="M21.562,40.137l0.007-0.013c-6.019-0.395-10.792-5.396-10.792-11.513V11.787V7.892V5.393   c0.047-0.617,0.382-1.828,2.288-1.828h18.047c0,0,2.761-0.075,2.761,3.309v1.018v3.895v3.136c0.006,0.399,0.133,1.877,1.65,1.877   h0.55c0.508-0.049,1.358-0.354,1.358-1.905V1.65c0-0.877-0.706-1.567-1.568-1.567H8.785c-0.861,0-1.566,0.69-1.566,1.567v27.105   c0,8.229,6.595,14.916,14.778,15.09c0.599-0.065,1.42-0.41,1.42-1.82V41.69C23.417,39.986,21.562,40.137,21.562,40.137z" fill="#241F20"/><path d="M41.675,47.242c-3.42,0-6.27,1.871-6.941,4.358c-0.011,0.06-0.2,1.169,0.713,0.583   c0.012-0.007,0.02-0.003,0.031-0.01c1.621-1.181,3.796-1.911,6.197-1.911c2.528,0,4.808,0.806,6.454,2.096   c0.001,0.004,0.003,0,0.005,0.004c0.432,0.301,0.551,0.119,0.571-0.119C48.383,49.445,45.378,47.242,41.675,47.242z" fill="#241F20"/><path d="M39.328,36.38c0.426-0.454,0.001-1.078-0.07-1.175c-2.639-2.593-5.496-0.853-6.715,0.135   c-0.068,0.069-0.475,0.508-0.139,0.912C35.229,38.485,37.285,38.175,39.328,36.38z" fill="#241F20"/><path d="M43.97,35.343c-0.143,0.194-0.344,0.593-0.033,0.959c2.056,1.852,4.114,2.206,6.946,0   c0.421-0.47-0.145-1.016-0.157-1.024C49.443,34.271,46.581,32.633,43.97,35.343z" fill="#241F20"/><path d="M13.725,14.88c-0.011,0.009-0.622,0.577-0.189,1.079c2.818,2.19,4.868,1.837,6.918,0.001   c0.395-0.436,0.027-0.924-0.082-1.049C17.812,12.324,15.023,13.875,13.725,14.88z" fill="#241F20"/><path d="M25.235,14.758c-0.052,0.059-0.644,0.773-0.099,1.325c1.98,1.715,3.98,2.015,6.692-0.052   c0.464-0.475-0.088-1.126-0.119-1.16C30.435,13.887,27.746,12.392,25.235,14.758z" fill="#241F20"/><path d="M55.212,20.135H28.135c-0.861,0-1.566,0.69-1.566,1.567v6.763c-0.021,0.273-0.128,0.699-0.586,0.924   c-0.903,0.235-1.852,0.393-2.857,0.392c-2.383-0.004-4.538-0.729-6.153-1.895c-0.001,0-0.008,0.008-0.008,0.008   s-0.96-0.46-0.737,0.632c0.714,2.44,3.521,4.27,6.893,4.276c1.001,0.003,1.938-0.174,2.798-0.467l-0.003,0.006   c0,0,0.016-0.009,0.037-0.019c0.057-0.021,0.111-0.044,0.168-0.063c0.192-0.048,0.449-0.022,0.449,0.467v16.082   c0,8.338,6.77,15.108,15.106,15.108c8.35,0,15.106-6.771,15.106-15.108V21.702C56.781,20.825,56.073,20.135,55.212,20.135z    M53.223,27.944v3.894v16.827c0,6.372-5.166,11.549-11.548,11.549c-6.373,0-11.549-5.177-11.549-11.549V31.838v-1.695v-2.076   v-0.839v-1.121v-0.663c0.047-0.617,0.383-1.828,2.289-1.828h18.046c0,0,2.762-0.075,2.762,3.309V27.944z" fill="#241F20"/></g></svg>